<svg xmlns="http://www.w3.org/2000/svg" width="280" height="56" viewBox="0 0 280 56" shape-rendering="crispEdges"><rect width="280" height="56" fill="#000"/><rect x="4" y="4" width="272" height="48" fill="#6F6F6F"/><rect x="4" y="4" width="272" height="4" fill="#A8A8A8"/><rect x="4" y="4" width="4" height="48" fill="#A8A8A8"/><rect x="4" y="44" width="272" height="8" fill="#4A4A4A"/><path d="M122 38L112 38L112 24L122 24L122 26L114 26L114 28L118 28L118 30L114 30L114 36L122 36L122 38M126 38L124 38L124 28L128 28L128 30L130 30L130 28L132 28L132 30L134 30L134 38L132 38L132 30L130 30L130 34L128 34L128 30L126 30L126 38M138 34L138 36L136 36L136 34L138 34L138 32L144 32L144 30L138 30L138 28L144 28L144 30L146 30L146 38L138 38L138 36L144 36L144 34L138 34M153 26L151 26L151 24L153 24L153 26M157 38L153 38L153 36L151 36L151 30L149 30L149 28L153 28L153 36L157 36L157 38M169 38L165 38L165 36L163 36L163 26L161 26L161 24L165 24L165 36L169 36" fill="#3F3F3F"/><path d="M120 36L110 36L110 22L120 22L120 24L112 24L112 26L116 26L116 28L112 28L112 34L120 34L120 36M124 36L122 36L122 26L126 26L126 28L128 28L128 26L130 26L130 28L132 28L132 36L130 36L130 28L128 28L128 32L126 32L126 28L124 28L124 36M136 32L136 34L134 34L134 32L136 32L136 30L142 30L142 28L136 28L136 26L142 26L142 28L144 28L144 36L136 36L136 34L142 34L142 32L136 32M151 24L149 24L149 22L151 22L151 24M155 36L151 36L151 34L149 34L149 28L147 28L147 26L151 26L151 34L155 34L155 36M167 36L163 36L163 34L161 34L161 24L159 24L159 22L163 22L163 34L167 34" fill="#FFFFFF"/></svg>